<?xml version="1.0" standalone="no"?>
<!DOCTYPE svg PUBLIC "-//W3C//DTD SVG 20010904//EN"
 "http://www.w3.org/TR/2001/REC-SVG-20010904/DTD/svg10.dtd">
<svg xmlns="http://www.w3.org/2000/svg"
 width="200.000000pt" height="200.000000pt" viewBox="0 0 1000.000000 1000.000000"
 preserveAspectRatio="xMidYMid meet">
<metadata>
Created by potrace 1.15, written by Peter Selinger 2001-2017
</metadata>
<g transform="translate(0.000000,1000.000000) scale(0.100000,-0.100000)"
fill="#000000" stroke="none">
<path d="M3970 9788 c-474 -61 -824 -117 -985 -158 -554 -142 -659 -175 -885
-277 -104 -47 -160 -79 -202 -115 -31 -28 -56 -54 -55 -58 1 -4 -1 -7 -5 -6
-4 0 -35 -26 -68 -59 -41 -40 -77 -90 -110 -153 -28 -51 -50 -97 -50 -102 0
-6 9 -10 19 -10 16 0 21 -9 26 -44 4 -25 4 -50 0 -56 -4 -6 -9 -30 -12 -52 -2
-23 -9 -51 -15 -61 -7 -14 -7 -22 2 -27 8 -5 11 -23 8 -51 -4 -38 -1 -47 21
-66 14 -12 44 -25 67 -29 39 -5 42 -8 40 -35 -1 -16 1 -29 6 -29 4 0 8 -14 8
-31 0 -30 19 -59 39 -59 6 0 11 -4 11 -9 0 -5 19 -12 43 -15 23 -4 58 -9 77
-12 48 -8 66 14 85 106 16 74 37 120 55 120 6 0 10 7 10 16 0 12 6 15 25 10
17 -4 25 -2 25 6 1 8 7 5 15 -6 22 -29 19 -89 -6 -120 -11 -14 -17 -26 -14
-26 4 0 3 -6 -3 -12 -6 -7 -8 -34 -6 -60 2 -27 -1 -48 -6 -48 -20 0 -10 -64
16 -97 18 -24 33 -33 55 -33 16 0 29 -4 29 -10 0 -5 7 -7 16 -3 8 3 32 -2 54
-12 35 -16 41 -16 70 -1 18 8 35 14 39 12 3 -2 7 12 8 32 3 82 18 132 53 176
46 57 72 68 138 57 76 -12 87 -26 68 -82 -9 -26 -13 -59 -10 -80 4 -24 1 -40
-9 -50 -13 -13 -13 -19 -1 -40 7 -13 13 -32 14 -41 0 -10 4 -18 9 -18 5 0 9
-6 8 -12 -1 -36 5 -48 23 -48 11 0 20 -6 20 -14 0 -12 14 -22 40 -31 42 -14
64 -15 92 -5 18 6 47 14 63 17 17 2 34 8 38 13 5 4 10 46 12 93 4 102 18 133
77 171 19 13 38 16 60 12 41 -7 102 8 76 19 -12 5 -16 14 -12 33 6 33 -12 57
-48 66 -28 6 -28 6 -28 -48 0 -44 -3 -55 -19 -59 -15 -4 -19 1 -18 22 3 57
-13 131 -29 131 -8 0 -12 5 -9 10 3 6 2 10 -3 10 -6 0 -13 -7 -16 -16 -4 -9
-9 -14 -12 -11 -4 3 -15 -2 -26 -12 -17 -17 -28 -18 -95 -12 -6 1 -15 10 -18
22 -5 15 -10 17 -20 9 -9 -8 -17 -6 -29 5 -9 9 -16 12 -16 6 0 -6 -4 -11 -10
-11 -5 0 -10 7 -10 15 0 8 4 15 10 15 5 0 7 7 4 15 -4 8 -1 15 4 15 6 0 9 9 7
21 -3 16 0 19 12 15 8 -4 22 -1 29 5 11 9 14 8 14 -5 0 -13 21 -22 33 -14 1 1
13 -5 27 -13 25 -14 44 -19 88 -22 12 -1 22 -5 22 -9 0 -5 9 -8 20 -8 12 0 31
-6 43 -14 12 -7 42 -14 67 -15 98 -4 190 -17 201 -28 10 -10 10 -18 -1 -40 -7
-16 -12 -36 -11 -45 3 -22 -38 -13 -60 14 -14 18 -17 18 -28 4 -16 -19 -6 -66
14 -66 8 0 23 -10 35 -22 11 -12 20 -17 20 -11 0 7 -6 18 -13 25 -15 14 -11
38 5 38 6 0 16 -8 23 -17 11 -15 15 -15 30 -3 15 12 19 12 30 -3 7 -10 19 -15
27 -12 9 4 20 -4 28 -19 7 -14 18 -22 24 -19 6 3 1 -5 -11 -18 -22 -24 -40
-85 -22 -74 5 4 6 11 3 17 -4 7 -2 8 4 4 13 -8 5 -36 -10 -36 -5 0 -7 -3 -5
-7 3 -5 -8 -8 -24 -9 -34 -1 -56 -25 -65 -71 -3 -18 -10 -33 -15 -33 -11 0 -8
130 3 136 5 3 7 29 7 57 l-1 52 -9 -54 c-9 -52 -15 -61 -91 -153 -13 -15 -29
-28 -35 -28 -7 0 -13 -7 -13 -16 0 -8 -13 -29 -30 -46 -16 -16 -30 -33 -30
-37 0 -3 -12 -18 -27 -32 -45 -42 -73 -80 -67 -90 3 -5 2 -8 -3 -7 -7 2 -88
-80 -122 -125 -12 -15 -12 -17 0 -12 8 3 23 18 34 34 10 16 23 27 29 24 5 -4
6 -1 1 7 -5 9 -4 11 3 6 7 -4 12 -22 12 -41 0 -47 18 -53 47 -17 14 19 29 29
38 25 9 -3 15 1 15 10 0 8 6 20 14 26 8 7 17 23 20 37 9 36 46 74 72 74 13 0
25 8 28 18 4 9 22 28 42 40 42 27 54 19 52 -35 -2 -41 4 -47 47 -47 19 0 35
-4 35 -8 0 -4 -7 -8 -15 -8 -16 0 -20 -12 -8 -23 3 -4 7 -17 7 -30 1 -20 -3
-22 -36 -19 -27 3 -39 0 -44 -11 -10 -27 6 -40 25 -23 10 9 21 13 25 9 4 -4
18 -9 32 -10 14 -2 38 -15 54 -29 22 -20 41 -26 84 -28 38 -2 57 1 60 10 3 8
12 11 21 8 8 -3 15 -2 15 4 0 5 -9 12 -19 15 -13 3 -21 -1 -24 -15 -8 -29 -27
-12 -27 24 0 27 3 30 25 26 28 -6 33 6 9 20 -19 10 -11 32 12 32 17 0 19 51 2
68 -9 9 -3 15 23 26 21 9 38 11 44 5 5 -5 16 -9 24 -9 12 0 12 3 3 12 -16 16
-15 28 2 28 15 0 29 45 31 102 1 20 9 44 19 53 16 16 16 18 -1 31 -12 9 -14
13 -5 14 9 0 11 7 7 20 -4 11 -3 20 2 19 19 -3 23 2 13 21 -7 14 -7 20 0 20 5
0 10 7 10 16 0 9 6 14 13 11 6 -2 11 -10 9 -17 -2 -8 3 -10 14 -6 9 3 22 2 28
-3 6 -5 21 -5 35 0 19 8 22 12 12 22 -9 9 -14 9 -21 -3 -8 -12 -10 -12 -16 3
-3 9 -15 17 -25 17 -30 0 -57 35 -61 77 -2 30 -7 37 -20 35 -22 -4 -24 21 -3
42 16 16 19 32 8 39 -5 2 -2 2 6 0 8 -2 18 2 23 9 6 10 8 9 8 -4 0 -23 27 -30
134 -33 106 -4 171 -22 170 -48 0 -9 -1 -39 -2 -67 l-2 -50 -53 0 -54 0 1 -47
c1 -27 -2 -68 -5 -93 -4 -25 -3 -67 1 -93 4 -26 3 -50 -2 -53 -4 -3 -5 -10 -1
-17 4 -6 8 -23 10 -38 2 -21 -3 -28 -20 -33 -12 -3 -33 -15 -47 -26 -20 -16
-22 -20 -7 -20 9 0 17 4 17 9 0 5 14 14 30 20 26 9 30 8 30 -8 0 -10 3 -21 7
-25 11 -11 13 -105 2 -111 -14 -9 -11 -25 5 -19 10 4 13 -7 12 -45 -1 -28 1
-51 4 -51 3 0 11 -4 18 -8 14 -9 6 -42 -10 -42 -5 0 -7 4 -4 9 5 7 -55 -3 -94
-17 -8 -3 -21 -4 -28 -3 -17 3 -11 -21 11 -37 12 -9 15 -18 8 -25 -5 -7 -9
-16 -10 -22 0 -5 -7 -11 -16 -13 -12 -3 -14 2 -9 22 4 16 2 26 -4 26 -18 0
-23 -17 -12 -46 12 -31 -2 -47 -32 -40 -21 5 -19 -14 2 -31 20 -16 33 -16 27
0 -3 8 8 21 26 32 18 10 37 25 43 33 8 11 13 12 18 3 4 -6 0 -14 -8 -17 -9 -3
-16 -13 -16 -20 0 -8 -11 -19 -25 -24 -14 -5 -25 -15 -25 -21 0 -11 -19 -10
-84 7 -16 4 -26 2 -26 -5 0 -6 7 -11 15 -11 8 0 15 -4 15 -10 0 -5 -4 -10 -10
-10 -5 0 -10 -4 -10 -10 0 -16 50 -23 76 -11 34 15 31 -5 -4 -27 -16 -10 -26
-24 -24 -34 2 -9 -7 -24 -21 -33 -14 -9 -28 -26 -31 -38 -3 -12 -28 -48 -55
-81 -27 -32 -60 -78 -73 -102 -12 -24 -29 -44 -35 -44 -7 0 -13 -4 -13 -8 0
-5 -9 -20 -20 -33 -47 -55 -100 -129 -100 -138 0 -6 -12 -25 -28 -43 -15 -18
-34 -51 -41 -73 -7 -22 -19 -53 -26 -70 -7 -16 -18 -43 -25 -60 -19 -47 -40
-119 -35 -123 2 -3 -1 -14 -7 -26 -6 -12 -6 -17 0 -11 5 6 46 82 91 170 45 88
73 149 62 135 -11 -14 -30 -49 -42 -77 -12 -29 -25 -53 -30 -53 -5 0 0 17 10
38 78 156 99 196 119 220 l23 27 -21 -42 c-11 -24 -18 -43 -15 -43 2 0 20 30
39 68 29 57 337 474 439 594 36 42 41 44 205 54 l112 6 16 -38 c39 -94 32
-140 -42 -265 l-57 -94 12 -135 c6 -75 11 -330 11 -575 0 -242 2 -478 4 -525
3 -47 8 -324 12 -616 l6 -531 -53 -6 c-30 -4 -113 -12 -186 -19 -79 -7 -129
-16 -126 -21 4 -6 1 -7 -6 -2 -7 4 -87 2 -177 -5 l-165 -13 -111 -84 c-61 -45
-112 -82 -114 -80 -1 1 -7 315 -13 697 -15 939 -22 1196 -33 1145 -5 -22 -11
-62 -13 -90 -4 -56 -16 -67 -34 -29 -9 21 -14 24 -25 15 -21 -18 -24 -4 -22
85 2 68 0 81 -13 76 -8 -3 -12 -1 -8 5 9 14 -21 39 -32 27 -5 -5 -14 -26 -21
-47 -12 -37 -34 -57 -48 -43 -3 4 -1 16 6 26 17 28 16 46 -3 30 -12 -10 -15
-10 -15 3 0 9 7 20 15 25 10 5 13 15 9 25 -5 13 -10 14 -26 6 -18 -10 -20 -18
-15 -62 4 -28 3 -55 -2 -61 -4 -6 -14 -32 -21 -59 -7 -26 -19 -51 -26 -55 -16
-9 -30 -62 -16 -62 6 0 12 10 14 22 2 13 11 24 21 26 14 3 17 -4 16 -40 -1
-36 -2 -39 -9 -18 -9 30 -11 25 -16 -58 -5 -77 -18 -105 -45 -97 -12 4 -19 2
-19 -6 0 -7 3 -9 7 -6 3 4 16 1 28 -7 20 -13 23 -12 37 17 9 18 19 40 22 50 6
20 26 23 26 5 0 -7 -13 -44 -28 -83 -16 -38 -29 -88 -30 -110 l-1 -40 19 40
c13 27 20 33 20 20 0 -11 -8 -36 -18 -55 -11 -19 -22 -50 -25 -67 -6 -28 -4
-33 13 -33 21 0 28 -24 10 -35 -6 -4 -6 -15 0 -31 7 -16 7 -32 0 -44 -7 -13
-6 -19 3 -23 18 -7 17 -199 -1 -205 -7 -2 -10 -13 -6 -27 3 -14 -1 -33 -11
-49 -12 -17 -15 -35 -10 -56 l7 -32 15 29 c23 45 32 48 22 7 -5 -22 -14 -68
-19 -104 -6 -36 -12 -75 -15 -86 -3 -16 1 -23 16 -27 16 -4 19 -9 11 -24 -5
-10 -12 -32 -15 -49 -5 -26 -3 -31 11 -30 12 1 16 -5 14 -19 -2 -16 -1 -17 7
-5 15 23 23 6 11 -25 -12 -33 -7 -43 15 -25 24 20 17 6 -20 -41 -33 -42 -49
-77 -23 -51 7 7 16 12 20 12 14 0 9 -37 -7 -50 -9 -8 -13 -20 -9 -29 4 -9 8
-23 9 -31 1 -8 7 -28 14 -44 9 -22 9 -31 1 -36 -16 -10 -25 -100 -11 -100 6 0
11 9 11 20 0 11 7 20 15 20 16 0 20 -12 8 -23 -8 -9 -8 -109 0 -131 4 -11 13
-16 22 -12 22 8 29 -13 10 -34 -17 -19 -15 -71 5 -125 6 -17 9 -14 21 18 14
40 36 52 25 15 -3 -13 -9 -43 -13 -68 -4 -27 -14 -50 -25 -58 -10 -7 -16 -18
-13 -23 4 -5 -3 -9 -14 -9 -34 0 -32 -17 4 -49 34 -30 64 -39 79 -24 12 12 56
14 56 3 0 -6 8 -10 18 -8 9 1 33 -10 53 -25 24 -18 42 -25 54 -20 14 5 16 3
10 -7 -5 -8 0 -19 15 -30 24 -18 66 -128 53 -141 -4 -4 -20 -11 -35 -14 -24
-6 -28 -3 -34 22 -8 33 -69 93 -95 93 -11 0 -19 6 -20 13 0 6 -6 -4 -13 -23
-8 -19 -11 -38 -9 -42 2 -5 -3 -8 -11 -8 -9 0 -16 6 -16 14 0 8 -3 21 -6 30
-4 11 -1 16 10 16 9 0 16 5 16 11 0 5 -4 8 -9 5 -5 -4 -11 -1 -13 5 -6 17 -39
-2 -49 -28 -7 -20 -14 -24 -32 -19 -12 3 -31 6 -42 6 -15 0 -21 7 -23 27 -3
38 -8 38 -26 2 -12 -24 -13 -35 -5 -45 6 -8 16 -11 22 -7 7 4 8 -5 4 -25 -4
-19 -2 -32 3 -32 6 0 10 5 10 10 0 6 7 10 15 10 8 0 15 -7 15 -16 0 -8 5 -12
10 -9 8 5 7 11 -1 21 -6 7 -8 21 -5 31 6 16 8 16 24 0 14 -15 15 -21 4 -38
-11 -17 -11 -25 2 -44 20 -31 20 -51 0 -59 -22 -9 -24 -8 -24 10 0 11 -6 14
-22 9 -43 -12 -69 -29 -66 -44 4 -20 28 -26 28 -7 0 18 16 21 25 5 4 -6 0 -16
-8 -22 -22 -17 -23 -37 -4 -81 10 -22 15 -46 12 -54 -3 -8 2 -23 10 -32 9 -10
15 -21 14 -26 -1 -5 0 -11 1 -14 4 -7 10 -90 10 -125 0 -16 -6 -33 -13 -37 -9
-6 -8 -12 6 -22 23 -18 22 -59 -3 -81 -19 -17 -19 -20 -4 -36 9 -10 14 -26 10
-35 -5 -12 -2 -15 10 -10 20 8 44 -11 44 -34 0 -12 -8 -18 -22 -18 -13 -1 -36
-4 -53 -7 -24 -5 -33 -2 -44 16 -10 17 -10 24 -2 27 6 2 11 8 11 12 0 5 -12 2
-27 -6 -22 -13 -34 -14 -55 -5 -30 11 -37 35 -13 45 19 7 19 26 0 26 -8 0 -15
-4 -15 -10 0 -5 -7 -10 -16 -10 -13 0 -15 7 -10 33 10 47 8 69 -4 77 -16 10
-3 35 25 50 13 7 22 17 19 22 -3 4 -14 4 -24 -2 -28 -15 -35 -12 -17 8 21 23
26 84 8 98 -16 12 -21 83 -8 101 5 7 5 27 1 45 -4 18 -6 43 -5 56 2 14 -3 22
-13 22 -23 0 -20 13 9 38 26 22 33 42 15 42 -17 0 -25 3 -38 17 -16 16 -9 43
12 43 24 0 27 28 3 32 -17 2 -21 9 -19 28 4 34 2 124 -3 129 -3 2 -11 -2 -20
-9 -11 -9 -15 -9 -15 -1 0 7 14 17 30 22 37 13 40 39 5 39 -22 0 -25 4 -25 34
0 19 -4 38 -10 41 -5 3 -8 37 -7 75 2 57 0 72 -16 85 -15 13 -16 19 -7 31 12
14 11 15 -12 18 -20 2 -21 27 -2 32 16 4 19 15 19 59 0 29 -3 56 -7 60 -3 4 0
25 8 47 16 47 17 51 5 44 -11 -7 -9 44 3 62 5 8 2 18 -7 25 -26 21 -28 45 -4
53 13 4 23 2 25 -5 3 -9 7 -9 18 0 19 16 18 33 -2 25 -9 -4 -23 -1 -30 5 -18
15 -18 59 0 59 7 0 20 7 27 17 13 14 11 16 -13 11 -22 -4 -27 -1 -31 21 -3 14
-1 36 4 50 6 13 6 27 2 30 -42 31 -49 188 -10 227 12 13 7 24 -8 18 -12 -5
-15 2 -15 34 0 23 6 53 12 68 10 22 10 28 0 32 -16 5 -15 27 3 42 8 7 12 17 8
22 -3 6 -13 1 -23 -13 -18 -22 -18 -21 -13 44 4 47 2 67 -6 67 -6 0 -11 13
-11 29 0 17 -4 33 -10 36 -5 3 -10 15 -10 26 0 10 5 19 10 19 6 0 10 7 10 15
0 8 -4 14 -9 12 -9 -2 -11 2 -11 29 0 10 6 13 19 9 12 -4 21 0 25 11 9 22 0
30 -18 15 -11 -9 -15 -8 -20 5 -11 29 -6 75 9 80 8 4 15 11 15 16 0 6 -7 8
-15 4 -9 -3 -15 0 -15 9 0 8 -5 15 -11 15 -6 0 -8 9 -4 20 4 11 2 20 -4 20
-19 0 -12 20 16 44 21 19 24 26 14 37 -33 38 -60 83 -55 91 3 5 14 2 24 -7 10
-9 23 -14 28 -11 12 7 6 119 -7 145 -14 25 -14 108 -1 116 6 3 10 11 10 16 0
6 -4 7 -10 4 -6 -4 -10 8 -10 29 0 20 -4 36 -9 36 -6 0 -9 -12 -8 -27 1 -19
-3 -28 -13 -28 -11 0 -15 11 -14 43 0 23 -3 42 -8 42 -11 0 -10 37 1 44 5 3
11 -1 15 -9 3 -8 14 -15 25 -15 24 0 35 37 14 49 -13 7 -13 9 1 14 9 4 16 2
16 -3 0 -6 5 -10 10 -10 18 0 10 22 -10 27 -11 3 -20 12 -20 19 0 8 -6 14 -14
14 -20 0 -30 18 -17 33 5 7 8 23 4 35 -3 12 2 33 11 46 10 15 12 27 6 31 -6 3
-10 0 -10 -7 -1 -9 -5 -7 -14 4 -7 10 -15 15 -18 13 -3 -3 -5 9 -4 27 1 18 7
38 15 44 12 9 11 12 -3 17 -24 10 -21 57 4 57 13 0 20 7 20 20 0 11 -7 20 -16
20 -10 0 -14 6 -10 18 2 9 7 27 11 40 5 16 2 22 -9 22 -11 0 -14 12 -11 57 2
38 -2 61 -11 70 -15 16 -10 133 9 168 9 18 7 17 -15 -3 l-25 -23 2 -1754 c1
-964 5 -1757 8 -1762 4 -6 4 -103 2 -216 l-5 -207 43 -21 c23 -12 81 -46 129
-75 47 -30 88 -54 91 -54 6 0 239 -138 249 -148 4 -4 -26 -44 -67 -90 -41 -45
-75 -90 -76 -100 0 -9 -2 -26 -5 -37 -2 -11 -6 -42 -9 -69 -5 -45 -3 -52 26
-82 l32 -33 -35 -43 c-33 -40 -36 -50 -42 -132 l-6 -90 37 -38 37 -38 -21 -67
c-18 -59 -21 -88 -18 -209 l3 -142 45 -67 45 -66 -25 -65 c-23 -60 -24 -67
-11 -102 13 -31 13 -45 2 -86 -8 -32 -11 -78 -7 -130 5 -70 12 -95 52 -176 43
-89 50 -98 117 -145 40 -27 95 -71 122 -97 28 -27 55 -48 61 -48 5 0 23 -13
41 -30 18 -16 37 -30 42 -30 6 0 20 -10 32 -23 12 -13 27 -22 34 -19 7 2 12
-1 12 -8 0 -6 4 -9 9 -6 5 4 30 -3 55 -14 25 -10 46 -17 46 -13 0 3 7 0 15 -7
8 -7 15 -8 15 -4 0 5 -12 18 -27 28 -16 9 -21 15 -12 13 10 -3 36 -11 58 -18
23 -7 40 -17 38 -23 -5 -16 24 -35 53 -36 30 0 15 16 -20 23 l-25 4 27 2 c15
0 80 -19 145 -42 109 -41 171 -58 248 -72 17 -3 93 -17 170 -31 202 -37 214
-37 385 -19 85 9 252 20 371 25 180 7 246 14 405 44 l189 36 180 91 c99 50
189 99 201 110 11 10 24 19 28 19 13 0 36 28 36 44 0 9 8 16 18 16 10 0 28 9
39 19 12 11 24 17 28 13 4 -4 5 0 3 8 -2 8 2 14 7 13 6 -1 12 8 12 19 1 12 7
24 14 28 6 4 8 13 5 19 -4 6 19 40 53 78 l61 68 0 78 c0 49 6 91 16 115 21 49
35 190 24 256 -6 37 -4 60 6 85 11 26 13 62 8 155 -6 112 -5 125 15 164 22 42
22 44 5 121 l-17 78 28 70 27 70 -27 43 -27 43 43 89 43 88 -36 68 c-19 37
-72 138 -118 224 l-82 158 27 10 c14 5 45 13 68 16 23 3 65 12 92 19 28 7 66
16 86 19 20 4 76 32 123 62 l86 56 0 412 c0 226 2 449 5 496 8 148 6 2177 -3
2625 l-9 430 -56 101 c-57 104 -127 250 -127 265 0 13 -113 191 -137 217 -7 7
-13 17 -13 21 0 5 -23 30 -50 57 -28 27 -61 64 -73 82 -12 17 -29 34 -38 37
-8 3 -26 23 -38 45 -12 22 -31 45 -42 50 -10 6 -19 15 -19 21 0 6 -12 24 -27
39 -59 62 -69 80 -78 140 -3 25 -13 70 -21 101 -19 75 -18 78 11 91 13 6 23
14 21 17 -2 3 8 7 22 7 15 1 55 5 89 9 39 5 68 4 75 -2 7 -6 30 -16 51 -22 24
-8 37 -19 37 -30 0 -16 27 -57 70 -109 6 -7 9 -16 6 -20 -3 -5 4 -15 15 -22
10 -8 19 -22 19 -32 0 -41 20 -55 69 -50 25 3 58 13 73 23 14 11 38 19 52 19
31 0 76 55 76 93 0 32 -24 125 -43 169 -8 18 -18 48 -21 66 -3 18 -13 40 -21
49 -9 9 -14 22 -11 30 3 7 0 22 -6 33 -14 23 -12 26 25 35 23 6 27 4 27 -14 0
-12 5 -21 11 -21 7 0 9 -10 7 -25 -5 -24 -4 -25 56 -27 33 0 67 -1 73 -1 7 1
11 -2 9 -6 -3 -4 11 -27 30 -51 19 -24 37 -55 41 -69 3 -14 12 -35 19 -46 8
-11 14 -27 14 -36 0 -9 9 -26 20 -39 16 -19 29 -23 75 -22 75 1 151 21 181 49
22 20 24 30 23 97 -1 42 -7 86 -15 101 -8 15 -14 36 -14 46 0 10 -8 23 -19 28
-23 13 -36 58 -22 75 6 7 7 17 3 21 -4 5 -1 4 7 0 10 -6 13 -4 9 6 -5 12 1 14
23 11 16 -2 29 -10 29 -17 0 -8 14 -23 30 -35 22 -16 30 -29 30 -53 0 -36 18
-90 40 -124 12 -19 24 -23 62 -23 29 0 48 4 48 11 0 8 4 8 14 0 12 -10 23 -7
55 15 22 14 38 30 35 35 -3 5 -1 9 4 9 5 0 6 21 2 48 -5 26 -4 48 1 50 5 2 9
10 9 17 0 14 30 25 71 25 48 0 51 14 34 140 -7 60 -30 132 -53 167 -12 20 -12
26 6 50 23 33 20 73 -9 99 -10 9 -19 23 -19 31 0 7 -4 13 -9 13 -5 0 -19 17
-31 38 -12 20 -16 31 -9 25 19 -19 29 -16 29 7 0 14 -7 20 -22 20 -13 0 -47
22 -78 50 -180 163 -194 171 -490 270 -320 107 -929 226 -1390 270 -63 6 -124
14 -135 17 -11 3 -321 7 -690 7 -583 2 -688 0 -805 -16z m812 -322 c10 -7 21
-28 24 -47 4 -19 12 -43 17 -54 15 -28 19 -57 7 -50 -5 3 -10 1 -10 -5 0 -6
-4 -9 -8 -6 -5 3 -26 -1 -48 -9 -21 -8 -65 -14 -96 -15 l-58 0 -2 33 c0 17 -1
40 0 50 1 9 -2 17 -8 17 -14 0 -40 -42 -40 -66 0 -35 -28 -52 -115 -68 -11 -3
-27 -7 -36 -11 -10 -3 -20 -2 -24 4 -11 20 -54 12 -67 -11 -7 -13 -11 -26 -10
-30 1 -4 -5 -5 -12 -2 -17 7 -29 49 -21 74 3 10 17 25 30 34 20 13 23 22 19
45 -5 23 0 35 30 64 20 20 42 34 49 31 8 -3 19 1 25 9 8 9 28 12 69 9 75 -6
81 -5 123 6 52 15 142 13 162 -2z m154 -43 c-17 -94 -17 -123 0 -123 9 0 18 9
21 21 5 16 11 19 34 14 21 -5 31 -2 35 9 7 19 32 22 31 4 0 -7 1 -26 1 -42 2
-23 5 -27 14 -18 20 20 26 14 30 -28 2 -27 -1 -41 -10 -45 -25 -9 -58 -5 -78
10 -10 8 -28 15 -38 15 -11 0 -28 8 -38 17 -14 13 -21 14 -30 5 -18 -18 -28
-15 -39 15 -6 17 -6 36 0 54 7 21 6 31 -5 40 -8 6 -14 26 -14 45 0 34 -3 33
79 42 10 2 12 -7 7 -35z m-116 -253 c0 -5 -8 -10 -18 -10 -14 0 -52 -31 -52
-43 0 -1 13 -2 30 -2 16 0 29 -4 29 -9 0 -12 44 -34 56 -27 17 10 39 13 87 15
26 1 50 5 54 9 16 15 22 5 26 -45 4 -39 1 -56 -10 -67 -16 -17 -20 -18 -64
-20 -16 0 -28 -5 -28 -11 0 -5 7 -7 15 -4 8 4 15 1 15 -5 0 -6 -9 -11 -20 -11
-11 0 -20 -5 -20 -12 0 -6 -3 -8 -7 -4 -5 4 -8 12 -8 17 0 18 -18 10 -35 -16
-11 -17 -20 -23 -24 -16 -4 6 -2 11 3 11 6 0 11 4 11 9 0 5 -11 9 -25 9 -14 0
-25 -4 -25 -9 0 -5 -13 -9 -30 -9 -16 0 -30 5 -30 11 0 6 -14 9 -32 7 -29 -3
-33 -7 -33 -30 1 -17 -5 -28 -13 -28 -8 0 -10 -5 -6 -12 4 -7 -1 -6 -10 3 -16
15 -13 54 4 44 4 -3 10 1 13 9 4 9 -3 16 -19 19 -14 2 -22 2 -20 -1 3 -2 1
-13 -5 -23 -8 -16 -14 -17 -30 -9 -11 6 -17 15 -14 19 3 5 -12 8 -34 7 -23 0
-37 3 -34 10 2 6 -11 10 -32 11 -22 1 -33 -3 -28 -10 7 -11 -6 -5 -49 25 -26
18 -26 20 -14 57 8 20 12 50 9 64 -3 15 -2 27 1 27 15 0 48 -39 42 -49 -4 -6
1 -22 10 -36 13 -20 19 -23 30 -14 8 6 14 19 14 28 1 33 29 65 66 77 l39 12
-55 3 c-30 1 -64 4 -75 5 -11 1 -32 2 -47 3 -16 1 -28 5 -28 11 0 6 62 11 153
13 83 1 178 4 210 5 33 1 57 -2 57 -8z m2121 -541 c21 -17 39 -35 39 -41 0 -5
9 -17 20 -26 14 -12 23 -41 33 -104 15 -96 10 -119 -17 -89 -10 11 -15 25 -11
30 11 19 -5 32 -26 21 -11 -6 -17 -15 -15 -19 9 -14 -43 -36 -55 -24 -16 16 1
40 42 62 30 16 34 23 31 52 -4 48 -12 70 -22 64 -5 -3 -16 10 -26 30 -18 39
-34 54 -34 32 0 -29 -43 -117 -58 -117 -12 0 -12 3 -2 15 9 10 10 31 6 64 -6
47 -5 50 21 64 16 8 30 15 32 16 2 1 21 -13 42 -30z m-578 -91 c6 -3 20 -4 31
-1 41 9 71 7 69 -4 -3 -15 34 -8 56 10 9 7 26 14 39 15 24 1 65 -32 54 -43 -4
-3 -7 -12 -8 -18 0 -7 -2 -19 -2 -27 -1 -8 -12 -16 -24 -17 -13 -1 -42 -3 -65
-5 -24 -2 -45 -9 -48 -15 -2 -7 -11 -13 -20 -13 -8 0 -15 -4 -15 -10 0 -5 7
-10 15 -10 19 0 35 -58 41 -145 5 -70 -6 -110 -24 -90 -5 6 -17 35 -27 65 -10
30 -22 60 -27 67 -18 23 -30 80 -33 151 -2 62 -5 75 -24 88 -12 9 -18 20 -14
27 5 8 8 7 11 -3 3 -8 10 -18 15 -22z m-3868 12 c25 -10 26 -13 22 -72 -3 -60
-31 -138 -49 -138 -14 0 -9 27 7 40 8 7 15 22 15 33 0 27 -22 87 -32 87 -17 0
-102 -114 -132 -179 -22 -48 -55 -91 -68 -91 -16 0 -8 88 9 105 16 16 17 16
30 -1 12 -17 13 -17 13 2 1 56 52 150 110 201 28 25 38 27 75 13z m2579 -107
c8 -16 15 -24 16 -20 0 4 10 3 21 -4 15 -8 19 -8 15 0 -4 6 -3 11 3 11 5 0 17
3 26 7 14 5 16 2 10 -16 -6 -21 -5 -21 14 -9 13 8 19 19 16 28 -5 13 -4 13 9
0 14 -14 14 -22 3 -60 -13 -45 -13 -45 -59 -46 -25 -1 -57 -4 -71 -8 -14 -3
-37 -2 -51 4 -14 5 -28 6 -30 1 -3 -5 -16 -8 -28 -7 -18 1 -22 6 -20 24 2 12
-1 22 -7 22 -6 0 -8 -7 -5 -15 7 -17 -11 -21 -21 -5 -3 5 -25 18 -48 29 -38
18 -57 19 -114 6 -16 -4 -23 -1 -23 9 0 8 -7 17 -16 20 -12 4 -14 1 -9 -14 5
-14 2 -20 -9 -20 -9 0 -16 -5 -16 -11 0 -8 11 -9 33 -5 78 17 134 19 143 5 5
-8 9 -64 9 -125 l1 -112 -28 10 c-16 6 -25 15 -21 21 3 6 1 7 -5 3 -7 -4 -22
0 -34 8 -30 21 -45 20 -26 -1 9 -10 23 -35 31 -55 15 -36 15 -38 -4 -48 -11
-6 -24 -8 -31 -4 -6 4 -26 8 -44 10 -25 2 -34 -1 -34 -11 0 -14 13 -20 35 -15
31 7 173 5 169 -2 -3 -5 -1 -15 5 -21 5 -7 9 -22 9 -32 -1 -11 1 -32 5 -46 5
-19 3 -29 -8 -33 -8 -3 -15 -1 -15 4 0 4 -17 14 -37 20 -47 15 -65 30 -36 30
11 0 23 7 27 15 3 9 0 15 -10 15 -8 0 -22 7 -31 15 -13 14 -18 12 -44 -12 -33
-32 -36 -48 -12 -62 10 -5 15 -13 10 -17 -4 -4 -16 1 -27 11 -19 17 -20 17
-20 0 0 -14 -6 -16 -35 -11 -28 6 -35 4 -35 -9 0 -11 11 -15 45 -15 l44 0 -4
-40 c-3 -38 -3 -39 28 -39 46 1 92 -15 92 -32 0 -8 -10 -15 -22 -17 -26 -4
-30 -20 -8 -28 8 -4 15 -10 15 -16 0 -5 -4 -7 -9 -4 -5 3 -15 -1 -22 -10 -10
-13 -10 -17 0 -23 7 -5 12 -19 11 -32 -5 -51 12 -96 28 -72 12 19 46 20 50 1
2 -12 -3 -18 -13 -18 -12 0 -15 -6 -11 -22 3 -13 3 -17 0 -10 -9 19 -31 14
-37 -8 -3 -11 -11 -20 -17 -20 -8 0 -10 8 -7 21 3 13 1 19 -6 16 -7 -2 -13
-16 -15 -31 -3 -22 -7 -27 -24 -23 -26 7 -48 -2 -48 -19 0 -8 -4 -14 -10 -14
-5 0 -10 9 -10 19 0 11 -4 23 -10 26 -16 10 -12 38 5 31 10 -4 15 1 15 14 0
23 -18 27 -26 5 -7 -16 -41 -20 -63 -6 -8 5 -10 14 -6 21 5 8 3 11 -6 8 -8 -3
-14 -11 -14 -19 0 -14 -19 -39 -30 -39 -3 0 -3 6 2 12 4 7 6 26 4 41 -2 22 2
30 18 34 29 7 26 23 -3 23 -14 0 -27 4 -30 9 -3 5 -15 7 -26 4 -25 -7 -50 41
-32 59 18 18 14 27 -8 23 -20 -4 -21 -2 -23 53 0 9 3 28 7 40 8 24 14 24 61 7
19 -7 19 -7 1 7 -13 10 -15 17 -8 22 7 4 16 5 21 1 5 -3 12 -1 16 5 3 5 -5 14
-19 20 -26 10 -36 30 -15 30 8 0 8 4 0 14 -9 11 -7 15 10 19 20 5 20 7 5 22
-22 22 -20 46 4 52 11 3 20 9 20 13 0 10 -74 19 -78 10 -1 -4 -9 -16 -17 -26
-13 -18 -14 -18 -25 10 -10 26 -12 27 -28 14 -25 -23 -49 -28 -130 -29 -40 -1
-75 -5 -78 -11 -3 -5 -11 -5 -19 2 -9 8 -17 7 -28 -5 -9 -8 -18 -15 -21 -15
-3 0 -5 49 -4 109 l1 109 51 6 c28 3 100 5 160 6 106 0 111 -1 138 -27 15 -15
28 -33 28 -41 0 -7 8 -12 18 -10 15 3 17 16 17 106 0 123 8 135 90 130 43 -3
50 0 53 17 2 13 0 16 -5 8 -5 -7 -23 -10 -51 -6 -46 6 -54 17 -19 27 33 9 49
7 42 -4 -3 -6 1 -7 9 -4 9 3 16 14 16 23 0 13 -2 13 -9 2 -5 -8 -11 -9 -15 -3
-3 6 7 15 23 20 25 9 32 7 50 -14 19 -22 49 -25 36 -4 -3 5 -1 11 5 15 5 3 10
1 10 -6 0 -9 3 -9 14 0 10 9 15 8 20 -4 3 -8 16 -15 28 -14 22 1 22 1 -2 8
-18 5 -21 9 -12 15 7 4 24 1 39 -9 14 -9 22 -12 18 -5 -5 8 -3 11 6 8 8 -3 14
-12 14 -21 0 -20 7 -27 34 -32 11 -2 21 1 21 7 0 5 -7 8 -15 4 -19 -7 -19 8 0
24 12 10 16 7 25 -16 9 -21 13 -25 20 -15 4 8 21 19 36 25 26 11 27 12 8 31
-19 18 -19 19 4 13 12 -3 22 -2 22 3 0 19 20 8 34 -18z m-1595 0 c-4 -25 4
-32 35 -29 18 2 38 6 44 10 6 3 13 -2 15 -11 3 -11 5 -7 6 10 1 32 21 28 21
-4 0 -11 5 -17 10 -14 6 3 10 -2 10 -11 0 -10 3 -14 7 -10 4 3 13 -4 21 -16 7
-13 11 -15 8 -6 -3 10 -1 20 4 23 6 4 10 17 10 30 0 21 2 22 24 12 23 -11 23
-12 5 -25 -10 -7 -16 -19 -13 -26 3 -7 -5 -25 -18 -40 -22 -25 -24 -26 -63
-12 -22 8 -52 12 -67 9 -16 -3 -34 0 -42 6 -11 9 -15 9 -18 0 -7 -20 -62 4
-66 29 -4 24 35 82 55 82 7 0 12 -3 12 -7z m2159 -42 c2 -13 0 -30 -4 -39 -4
-9 -8 -33 -9 -53 -1 -20 -11 -48 -23 -64 -12 -15 -22 -36 -22 -46 0 -9 -6 -19
-12 -22 -10 -3 -10 -7 -1 -17 13 -14 36 -4 30 13 -4 12 16 37 28 37 4 0 5 -9
2 -21 -4 -16 -2 -19 10 -15 12 5 14 1 10 -14 -3 -13 0 -20 10 -20 8 0 11 -5 8
-10 -4 -6 -21 -8 -40 -4 -21 4 -43 0 -63 -10 -40 -21 -48 -34 -17 -28 14 2 25
8 25 12 0 14 31 20 51 10 10 -6 19 -19 19 -29 0 -11 10 -21 23 -25 21 -6 21
-7 5 -20 -22 -16 -23 -26 -3 -26 12 0 13 -4 5 -19 -14 -26 -13 -31 6 -31 11 0
15 -6 11 -20 -3 -13 0 -20 10 -20 9 0 13 -6 9 -15 -3 -8 0 -15 6 -15 20 0 48
33 48 57 0 27 15 31 24 6 3 -10 8 -23 11 -29 3 -6 -3 -14 -15 -17 -11 -3 -20
-10 -20 -17 0 -7 8 -9 19 -5 10 3 24 -1 31 -10 11 -14 14 -13 27 2 10 13 16
15 19 6 8 -18 24 -16 24 2 0 12 7 14 28 9 15 -4 28 -10 30 -13 10 -23 21 -33
32 -26 9 5 5 14 -13 29 -24 21 -25 23 -9 38 9 8 22 23 27 33 10 17 12 17 28 0
14 -14 20 -15 32 -5 20 17 41 -1 50 -41 4 -16 11 -27 16 -23 5 3 9 -2 9 -11 0
-8 7 -18 15 -21 8 -4 15 -12 15 -18 0 -7 20 -30 45 -52 27 -24 45 -48 45 -61
0 -14 6 -23 15 -23 8 0 15 -6 15 -13 0 -7 16 -30 35 -51 19 -21 35 -47 35 -57
0 -10 4 -20 9 -23 9 -6 21 40 21 80 0 12 5 26 11 30 8 5 10 -16 8 -72 -4 -71
-2 -79 14 -76 13 2 17 -4 18 -25 0 -27 1 -27 11 -6 12 26 38 38 38 19 0 -8 3
-16 8 -19 4 -2 2 -2 -5 -1 -16 4 -26 -28 -12 -37 8 -4 10 -20 6 -43 -3 -20 -2
-36 3 -36 10 0 20 25 20 51 0 25 17 24 25 -1 7 -23 25 -27 25 -5 0 8 5 15 11
15 7 0 8 -16 3 -46 -4 -27 -3 -49 3 -53 6 -3 14 -19 20 -35 8 -24 21 -38 51
-52 10 -5 37 -225 31 -256 -8 -52 0 -55 24 -7 28 57 41 37 26 -40 -9 -41 -21
-69 -37 -84 l-25 -22 12 22 c7 14 8 24 1 28 -5 3 -10 11 -10 16 0 6 4 8 9 5 5
-3 11 1 15 9 8 22 -20 19 -44 -5 -27 -27 -30 -25 -30 10 0 35 -25 41 -33 8 -4
-12 -9 -19 -13 -15 -4 3 1 18 10 32 16 25 13 75 -5 75 -5 0 -9 7 -9 15 0 8 -9
15 -20 15 -23 0 -28 38 -8 70 7 10 9 23 4 27 -4 4 -12 0 -17 -10 -11 -20 -24
-15 -39 13 -8 16 -8 18 5 14 9 -4 15 0 15 9 0 10 -7 13 -19 10 -21 -5 -35 20
-26 48 7 21 -5 25 -23 7 -9 -9 -15 -9 -25 1 -9 11 -9 14 1 18 6 3 12 12 12 21
0 10 -11 3 -33 -21 -18 -20 -39 -37 -47 -37 -29 0 30 -31 61 -32 23 -1 33 -7
40 -25 12 -32 12 -32 -13 -25 -14 3 -19 2 -14 -6 4 -7 17 -12 29 -12 32 0 67
-11 67 -20 0 -5 -15 -12 -32 -15 -43 -9 -53 -16 -39 -25 7 -3 -2 -7 -19 -7
-20 0 -30 5 -30 15 0 12 -3 12 -15 2 -12 -10 -18 -10 -30 0 -12 10 -19 10 -27
2 -9 -9 -7 -15 7 -26 11 -8 23 -12 27 -10 5 3 14 2 20 -2 7 -5 27 -7 45 -5 32
2 46 -13 21 -22 -10 -4 -10 -7 -1 -18 9 -9 9 -16 2 -25 -6 -7 -8 -17 -5 -23 8
-12 56 10 56 27 0 6 9 12 21 12 18 0 20 -4 14 -27 -4 -16 -7 -28 -8 -28 -1 0
-12 -6 -24 -12 -33 -19 -48 -17 -32 5 13 16 13 16 -7 0 -12 -10 -37 -18 -58
-18 -21 0 -35 -4 -31 -10 3 -5 12 -7 20 -3 11 4 14 -1 13 -17 -2 -13 3 -25 10
-27 7 -3 12 -1 11 4 -1 4 -1 16 0 26 1 24 21 11 21 -14 0 -10 5 -19 11 -19 6
0 8 8 4 19 -4 14 2 21 25 31 36 15 44 10 35 -20 -4 -13 -12 -19 -21 -16 -9 4
-14 0 -12 -9 2 -7 -6 -20 -16 -28 -12 -9 -17 -20 -13 -30 7 -19 37 -12 37 8 0
7 7 18 15 25 13 11 15 8 15 -13 0 -14 -4 -29 -10 -32 -6 -4 -5 -13 3 -25 15
-25 0 -54 -31 -58 -23 -4 -48 -29 -39 -39 4 -3 13 -1 21 6 11 9 15 9 18 -1 3
-8 11 -5 23 10 11 12 26 22 34 22 18 0 -25 -48 -54 -60 -17 -7 -17 -9 -2 -9
21 -1 23 -19 2 -27 -8 -4 -15 -18 -15 -33 0 -20 3 -22 9 -11 6 8 8 17 5 21 -2
4 7 10 20 13 14 3 29 18 36 36 7 16 16 30 20 30 5 0 15 3 24 6 11 4 16 1 16
-11 0 -12 -5 -15 -20 -10 -20 6 -28 -9 -10 -20 14 -8 13 -35 -1 -35 -6 0 -9 7
-5 15 8 21 -2 19 -33 -7 -14 -13 -25 -30 -24 -38 2 -8 -8 -28 -22 -44 -24 -28
-35 -74 -15 -61 6 3 10 12 10 20 0 7 10 22 23 32 13 10 26 26 30 36 7 18 47
24 47 7 0 -5 4 -10 9 -10 12 0 51 76 44 84 -4 3 1 6 10 6 10 0 17 2 17 5 0 7
-22 46 -36 65 -6 8 -14 32 -18 53 -5 29 -4 37 8 37 8 0 17 -8 19 -17 3 -10 5
-4 6 14 0 17 6 35 11 38 10 6 14 -7 11 -32 -1 -7 6 -13 15 -13 12 0 15 6 11
27 -6 30 9 67 22 58 5 -2 9 -25 9 -51 1 -37 -4 -50 -25 -70 -14 -13 -30 -24
-34 -24 -5 0 -9 -5 -9 -11 0 -8 4 -8 13 -1 10 9 17 6 30 -8 9 -11 14 -20 10
-20 -4 0 -2 -5 5 -12 14 -14 16 -32 2 -23 -5 3 -16 -8 -25 -24 -21 -41 -19
-48 7 -25 l21 19 -6 -34 c-4 -18 -7 -40 -7 -48 0 -9 -8 -13 -22 -11 -16 2 -22
9 -20 22 2 11 -1 15 -7 11 -6 -3 -11 -12 -11 -19 0 -7 -9 -21 -20 -31 -24 -22
-26 -51 -3 -73 15 -16 16 -14 10 21 -5 30 -2 39 14 48 11 6 27 8 36 5 13 -5
12 -11 -6 -41 -11 -19 -15 -35 -9 -35 7 0 7 -4 -1 -14 -8 -10 -8 -16 2 -24 14
-12 15 -50 3 -70 -4 -7 -2 -20 5 -28 9 -11 9 -18 -4 -32 -13 -14 -14 -21 -5
-30 8 -8 8 -15 -3 -28 -8 -9 -13 -26 -11 -36 2 -11 -4 -29 -14 -39 -17 -19
-17 -21 -1 -48 16 -27 16 -30 -3 -54 -17 -22 -18 -26 -5 -37 8 -7 15 -20 15
-29 0 -13 -2 -13 -9 -2 -5 8 -11 9 -15 3 -10 -17 5 -42 25 -42 22 0 25 -20 7
-39 -9 -8 -12 -40 -10 -101 1 -51 -2 -91 -8 -95 -16 -10 -12 -28 5 -21 8 3 15
1 15 -3 0 -5 -7 -11 -15 -15 -11 -4 -15 -21 -15 -61 0 -38 -4 -57 -14 -61 -14
-5 -16 -50 -3 -70 4 -7 0 -14 -8 -18 -22 -8 -18 -25 5 -19 16 4 20 0 21 -23 1
-16 3 -41 4 -56 3 -21 -1 -27 -22 -33 -16 -4 -23 -11 -19 -20 3 -8 1 -17 -4
-20 -5 -3 -7 -12 -3 -21 4 -11 8 -12 20 -3 9 8 17 9 24 2 11 -11 2 -43 -12
-43 -7 0 -12 -91 -9 -202 0 -20 -4 -39 -10 -43 -5 -3 -10 -16 -9 -28 0 -12 3
-16 6 -9 9 23 24 12 21 -15 -2 -21 -8 -27 -23 -25 -19 2 -19 2 -2 -9 12 -7 15
-15 9 -22 -14 -19 -23 -95 -12 -102 6 -3 13 1 16 9 9 23 24 20 24 -4 0 -12 -7
-20 -16 -20 -23 0 -42 -29 -36 -53 5 -19 6 -18 23 4 19 24 19 24 19 2 0 -12
-8 -28 -17 -35 -13 -9 -17 -24 -15 -48 7 -77 3 -108 -17 -150 -18 -38 -19 -47
-7 -70 9 -19 11 -43 6 -81 -4 -30 -6 -57 -3 -61 2 -4 -1 -18 -8 -30 -7 -12
-13 -39 -15 -60 -3 -33 -1 -38 18 -38 19 0 20 -2 6 -17 -14 -17 -31 -82 -28
-110 5 -63 -6 -202 -19 -217 -9 -11 -9 -15 1 -18 15 -5 11 -90 -5 -100 -8 -5
-6 -13 7 -26 16 -19 16 -21 0 -30 -10 -6 -13 -12 -6 -16 7 -4 5 -16 -5 -37
-14 -28 -14 -32 6 -53 26 -27 27 -37 4 -30 -16 5 -16 4 -3 -8 14 -12 22 -78 9
-78 -3 0 -4 -12 -1 -26 3 -16 -1 -30 -9 -35 -11 -7 -11 -11 -1 -17 10 -7 9
-15 -3 -39 -13 -26 -15 -85 -4 -129 4 -14 -22 -97 -33 -111 -8 -10 -6 -13 5
-13 19 0 30 -27 14 -37 -6 -4 -34 -8 -61 -10 -27 -2 -57 -10 -66 -18 -9 -8
-20 -12 -23 -8 -4 3 -16 -2 -26 -11 -34 -31 -56 1 -25 35 12 13 13 22 5 37 -6
12 -8 40 -5 66 5 31 3 46 -5 46 -6 0 -11 -8 -11 -18 0 -11 -8 -18 -21 -19 -12
-1 -18 3 -16 10 3 7 10 11 16 10 6 -2 11 6 11 17 0 11 7 23 15 26 8 4 15 12
15 20 0 8 -7 14 -15 14 -8 0 -15 5 -15 11 0 5 5 7 10 4 6 -4 10 5 8 22 -1 15
8 48 20 72 27 54 27 51 1 51 -14 0 -19 -5 -16 -14 3 -8 -1 -20 -9 -26 -10 -10
-14 -10 -14 -1 0 24 30 70 50 76 15 5 20 15 20 41 0 21 4 33 10 29 6 -3 10 -1
10 4 0 6 -7 11 -15 11 -8 0 -15 3 -15 8 0 4 -4 13 -9 21 -8 12 -12 13 -25 1
-14 -11 -16 -10 -9 6 4 10 13 30 20 44 7 14 13 30 13 36 0 7 10 15 23 18 l22
7 -24 10 c-17 7 -21 14 -16 27 14 34 17 89 6 96 -7 5 -11 -2 -11 -16 0 -13 -9
-29 -21 -36 -27 -17 -31 -12 -20 24 19 60 21 94 6 94 -8 0 -19 -9 -25 -20 -8
-15 -19 -19 -38 -17 -25 4 -27 7 -24 46 1 23 -2 50 -8 61 -8 16 -6 21 12 31
17 9 24 9 33 -4 10 -15 15 -13 37 11 30 32 48 64 48 88 0 14 -2 14 -16 3 -13
-10 -17 -10 -25 2 -5 8 -7 23 -4 34 2 11 5 31 5 44 0 20 2 22 15 11 18 -15 19
-15 34 29 16 47 14 71 -5 71 -13 0 -15 7 -10 31 3 17 6 38 6 45 0 8 9 14 20
14 16 0 20 7 20 30 0 17 -5 30 -10 30 -7 0 -7 6 0 19 14 27 13 41 -4 35 -11
-4 -12 3 -4 38 6 24 16 59 23 80 9 25 10 39 2 47 -16 16 -10 84 13 141 11 28
20 55 20 60 0 19 -27 10 -38 -12 -10 -23 -11 -22 -11 5 -1 15 4 36 11 46 6 10
8 27 4 37 -6 16 -9 16 -16 4 -15 -23 -13 16 2 43 19 35 27 99 15 117 -9 16 -1
72 19 124 4 10 1 16 -9 16 -28 0 -31 40 -7 73 18 24 20 31 9 38 -14 7 -16 66
-5 209 2 30 -1 64 -6 76 -7 16 -7 33 1 55 9 25 8 34 -1 41 -14 8 -4 11 25 9
25 -3 21 18 -6 30 -30 14 -48 42 -37 60 7 10 11 8 18 -10 6 -18 11 -21 17 -12
4 7 3 16 -2 20 -20 13 -22 43 -7 118 16 84 13 106 -11 97 -20 -8 -20 29 0 86
8 23 15 49 15 56 0 27 -18 13 -34 -26 -9 -22 -21 -40 -27 -40 -11 0 -5 28 17
74 8 16 14 36 14 46 0 9 5 21 12 28 9 9 7 12 -9 12 -16 0 -19 5 -15 25 2 14 9
25 15 25 5 0 3 8 -5 18 -9 10 -15 36 -15 65 0 54 -6 65 -28 47 -12 -10 -15
-10 -15 4 0 9 -4 16 -8 16 -10 0 -32 -44 -32 -63 0 -7 -9 -20 -20 -30 -12 -10
-20 -30 -21 -49 0 -30 -1 -31 -9 -10 -13 30 -28 28 -32 -5 -2 -14 -9 -29 -17
-31 -11 -4 -13 2 -8 26 4 17 2 34 -3 37 -4 3 -11 19 -15 36 -5 22 -11 29 -22
25 -12 -5 -14 -1 -10 20 6 32 -5 70 -42 141 -24 49 -41 67 -41 43 0 -5 3 -10
8 -10 4 0 8 -12 9 -27 0 -15 6 -29 12 -31 6 -2 9 -8 6 -12 -3 -5 13 -62 35
-127 l41 -118 -5 -220 c-3 -121 -9 -515 -12 -875 -3 -360 -7 -656 -8 -657 -1
-1 -34 35 -74 81 l-73 84 -92 6 c-51 3 -144 8 -207 11 -145 7 -475 27 -476 29
-1 0 -7 210 -13 466 -13 537 -25 1010 -41 1608 l-11 423 -60 97 c-32 53 -59
102 -59 109 0 7 16 38 36 68 36 53 38 54 108 69 77 16 108 17 100 4 -3 -4 -1
-8 4 -8 4 0 17 -8 28 -18 10 -9 43 -32 71 -51 33 -20 80 -67 123 -121 57 -71
76 -89 104 -94 22 -4 36 -13 39 -26 3 -12 14 -20 26 -20 14 0 19 5 14 16 -4
10 1 17 16 21 30 8 26 21 -4 15 -21 -4 -24 -1 -19 14 6 16 5 17 -7 7 -21 -21
-32 -15 -25 13 6 24 5 25 -24 19 -29 -6 -44 9 -18 17 10 4 8 9 -3 21 -9 9 -19
13 -23 10 -3 -3 -15 2 -27 13 -20 18 -20 18 -14 -11 4 -17 14 -41 22 -53 21
-34 9 -38 -12 -5 -21 31 -22 32 -75 93 -22 25 -40 48 -40 53 0 4 -5 7 -10 7
-6 0 -22 11 -36 25 -14 14 -30 25 -37 25 -16 1 -52 50 -36 50 9 0 9 3 0 14
-10 11 -8 16 7 20 10 4 25 19 31 34 23 49 50 145 44 155 -3 5 0 34 8 64 10 42
10 62 1 85 -7 20 -8 37 -2 48 6 11 5 21 -2 28 -7 7 -8 24 -3 49 12 55 12 57 3
69 -5 7 -2 14 8 18 13 5 14 9 4 22 -7 8 -14 42 -15 75 -1 33 -6 64 -13 67 -14
9 -12 140 2 151 6 5 57 12 114 15 154 10 169 15 163 50 -1 5 8 2 21 -6 13 -8
24 -25 26 -37z m-2764 -55 c14 -7 43 -11 64 -9 28 3 34 1 25 -8 -6 -6 -9 -17
-6 -25 2 -7 -7 -46 -21 -88 -16 -47 -26 -96 -26 -133 0 -37 -6 -67 -16 -81
-17 -25 -34 -29 -34 -9 0 8 -9 22 -20 32 -18 16 -20 16 -26 1 -9 -24 -17 -20
-38 24 -13 27 -17 50 -13 76 7 44 18 57 49 59 16 1 24 9 26 26 2 21 -4 28 -46
47 -26 12 -53 22 -59 22 -18 0 -22 27 -8 47 12 17 22 19 65 15 33 -3 50 -1 50
7 0 14 2 14 34 -3z m2879 -80 c18 -12 39 -13 114 -5 121 12 147 1 157 -66 4
-25 5 -53 2 -63 -6 -18 -74 -57 -83 -48 -3 2 -24 -2 -46 -11 -23 -8 -61 -15
-83 -14 -31 1 -44 -3 -49 -16 -11 -27 -54 111 -55 173 0 66 6 73 43 50z m-760
-49 c9 9 228 3 247 -7 45 -24 49 -109 14 -277 -4 -23 -4 -23 -24 -3 -11 11
-29 20 -39 20 -11 0 -23 5 -26 10 -3 6 -15 10 -26 10 -12 0 -23 10 -30 27 -13
34 -26 43 -64 43 -17 0 -36 5 -43 12 -9 9 -19 7 -41 -10 -27 -20 -30 -20 -35
-4 -9 32 -18 200 -11 211 5 8 17 4 40 -13 18 -14 35 -23 38 -19z m-1313 -15
c12 -34 12 -46 2 -62 -6 -11 -12 -25 -12 -31 0 -21 -41 -62 -65 -65 -14 -1
-25 2 -25 7 0 10 -49 34 -62 31 -5 -1 -8 3 -8 9 0 8 -6 7 -17 -2 -11 -10 -14
-10 -9 -1 7 11 -6 17 -29 12 -5 -1 -1 8 9 19 10 11 22 18 27 16 8 -5 23 12 25
30 0 6 2 15 2 20 1 6 16 11 33 11 17 1 34 6 38 11 11 15 56 42 66 39 6 -1 17
-21 25 -44z m1096 -1025 c13 -13 10 -68 -4 -76 -9 -5 -16 -23 -16 -40 -1 -32
10 -42 20 -17 3 8 14 13 25 11 11 -2 23 4 29 16 6 10 17 19 25 19 14 0 14 -17
0 -52 -7 -16 3 -23 27 -19 4 0 0 -12 -8 -27 -7 -15 -14 -34 -14 -42 0 -12 -2
-12 -9 -2 -7 11 -13 9 -29 -9 -17 -17 -24 -19 -35 -11 -16 14 -31 4 -18 -12
16 -20 -12 -61 -41 -62 -28 0 -34 6 -21 20 11 10 11 56 1 56 -5 0 -6 4 -3 10
3 5 0 7 -9 4 -8 -3 -23 -1 -33 5 -16 9 -15 10 8 11 28 0 79 34 79 52 0 6 -12
-1 -27 -16 -18 -19 -29 -23 -34 -15 -4 7 -1 19 7 26 18 18 8 36 -17 30 -10 -3
-22 0 -26 6 -5 7 -10 -10 -13 -38 -4 -41 -9 -50 -24 -50 -15 0 -19 9 -22 44
-2 24 -8 59 -15 78 -6 19 -8 37 -5 40 3 3 -2 12 -12 20 -16 12 -16 14 4 31 16
14 38 17 112 16 51 0 95 -3 98 -7z m-303 -145 c3 -4 -1 -24 -8 -44 -8 -25 -9
-40 -2 -47 7 -7 7 -18 -1 -36 -18 -39 -15 -45 20 -45 43 0 31 -9 -23 -16 -54
-7 -64 -16 -50 -42 10 -18 7 -19 -28 -18 -21 0 -44 6 -52 12 -30 23 -39 24
-58 5 -19 -19 -19 -19 -24 1 -4 14 -1 18 8 14 7 -2 16 2 19 10 3 9 10 12 16 9
6 -3 14 4 19 17 8 18 10 19 10 5 1 -12 5 -15 13 -11 7 5 27 7 45 5 25 -2 32 1
32 16 0 29 8 69 18 89 5 11 9 26 8 34 -3 32 25 64 38 42z m-119 -2447 c3 -22
10 -41 16 -43 6 -2 15 -12 20 -22 10 -18 9 -19 -32 -4 -23 8 -49 11 -58 8 -8
-4 -18 -6 -22 -6 -5 1 -8 -3 -8 -9 0 -6 7 -9 15 -5 12 4 15 -3 15 -34 0 -22 5
-40 11 -40 5 0 8 -3 6 -7 -3 -5 1 -13 8 -20 10 -10 14 -9 19 3 3 9 1 12 -4 9
-6 -3 -10 -4 -10 -1 0 2 -2 11 -6 19 -7 18 42 52 52 35 4 -6 3 -8 -3 -5 -6 4
-13 -3 -16 -15 -4 -16 -3 -18 6 -9 16 16 30 14 24 -4 -3 -7 3 -24 13 -37 15
-18 19 -19 20 -7 0 9 9 27 21 40 17 19 22 21 29 9 20 -31 18 -53 -5 -71 -19
-17 -19 -17 0 -17 44 1 51 -1 35 -12 -11 -7 -11 -10 -2 -10 7 0 10 -6 7 -12
-4 -7 1 -4 9 6 15 18 29 16 32 -5 1 -5 2 -13 3 -18 0 -5 10 -7 22 -4 11 3 18
11 15 19 -3 7 -2 16 3 18 4 3 7 -13 7 -36 -1 -25 -7 -43 -15 -46 -10 -3 -12 1
-9 16 4 16 1 20 -13 19 -22 -1 -23 -10 -8 -38 7 -15 7 -24 -1 -34 -12 -15 3
-31 20 -20 6 4 10 3 9 -2 -1 -4 0 -11 1 -15 1 -5 4 -20 5 -35 1 -16 6 -48 10
-72 l8 -43 -39 5 c-58 8 -127 32 -132 46 -2 6 -7 9 -12 6 -4 -3 -6 3 -3 14 3
10 0 22 -6 25 -6 4 -11 0 -11 -10 0 -13 -3 -14 -15 -4 -8 6 -14 15 -13 18 4
12 -26 52 -38 52 -7 0 -15 7 -18 16 -3 9 -11 12 -18 8 -7 -4 -10 -4 -6 0 4 5
2 20 -4 35 -6 14 -12 66 -14 115 -4 102 -13 120 -58 110 -17 -4 -45 -8 -63
-10 -30 -3 -33 -1 -33 26 0 37 27 52 78 44 41 -6 56 4 58 36 0 23 16 114 20
122 3 4 19 -8 38 -25 23 -22 35 -44 40 -72z m773 -219 c-4 -87 -31 -149 -85
-198 -20 -19 -43 -45 -50 -59 -19 -36 -142 -86 -178 -72 -16 6 -19 29 -3 38 6
4 8 13 5 21 -8 20 4 74 16 74 5 0 17 8 26 18 10 10 13 11 7 3 -9 -12 -7 -12
13 0 12 8 18 15 12 17 -5 2 -10 10 -10 18 0 9 -4 13 -9 9 -5 -3 -13 0 -17 6
-4 7 -3 9 2 6 6 -3 15 3 22 13 9 14 9 21 0 26 -6 4 -8 3 -5 -3 4 -6 0 -13 -8
-17 -8 -3 -17 -1 -20 4 -9 15 -27 12 -19 -2 4 -8 3 -10 -2 -5 -5 5 -10 13 -10
18 -1 5 -2 10 -4 12 -6 7 -5 47 1 47 4 0 6 8 4 18 -4 24 42 28 81 7 16 -8 30
-11 32 -5 2 5 10 6 18 3 7 -3 11 -10 7 -16 -3 -6 -1 -7 5 -3 7 4 12 14 12 22
0 9 6 14 13 11 7 -2 11 -17 9 -35 -2 -23 1 -32 12 -32 8 0 21 -3 29 -6 22 -8
56 57 53 100 -2 20 1 36 6 36 5 0 6 5 2 11 -4 8 0 7 15 -1 20 -10 21 -18 18
-84z m103 -427 c0 -12 -43 -28 -88 -33 -21 -2 -82 -11 -137 -19 -55 -8 -135
-15 -178 -16 -85 -1 -105 -7 -88 -24 8 -8 14 -8 23 1 7 7 26 12 42 11 l31 -1
-30 -10 c-16 -5 -37 -12 -45 -14 -10 -4 -8 -8 10 -18 15 -8 32 -10 42 -4 17 8
71 8 62 -1 -2 -2 6 -16 18 -30 13 -14 16 -21 9 -14 -11 10 -20 8 -43 -9 -20
-14 -33 -17 -40 -10 -10 10 -48 5 -48 -8 0 -4 -21 -5 -46 -2 -37 4 -45 2 -39
-8 6 -10 1 -12 -25 -6 -19 3 -37 11 -41 17 -3 6 -9 2 -12 -10 -3 -12 -11 -21
-17 -21 -7 0 -10 8 -7 20 3 13 0 20 -9 20 -8 0 -14 -7 -14 -16 0 -8 -5 -12
-10 -9 -8 5 -7 11 1 21 6 7 9 21 5 29 -3 9 -2 13 4 10 6 -3 10 -1 10 4 0 6 3
10 8 9 4 0 24 6 45 16 21 9 42 14 46 12 4 -3 17 1 27 9 30 23 2 33 -93 34 -96
0 -127 7 -119 27 3 7 1 16 -5 20 -6 3 -13 -4 -16 -15 -4 -17 -11 -20 -32 -17
-38 6 -38 6 -13 17 13 5 20 13 17 19 -6 10 13 11 475 14 127 1 235 7 249 12
27 12 71 7 71 -7z m888 -114 c-11 -13 -24 -22 -28 -20 -4 2 -22 -9 -40 -25
-19 -17 -42 -30 -52 -30 -15 0 -18 -5 -13 -20 4 -13 2 -20 -7 -20 -8 0 -35
-23 -61 -51 l-48 -52 -40 13 c-22 8 -42 17 -45 22 -8 13 22 38 45 38 17 0 20
5 17 30 -3 26 0 30 20 30 12 0 29 8 36 19 10 14 24 18 57 16 27 -2 38 1 30 6
-20 13 7 29 49 29 22 0 31 4 26 11 -9 15 14 29 48 29 l28 0 -22 -25z m-2601
-186 c13 -13 98 -16 131 -5 14 5 28 3 36 -4 11 -8 18 -7 29 5 11 10 17 11 19
3 4 -12 64 -13 132 -2 25 4 41 2 46 -5 5 -9 14 -9 35 1 22 10 29 10 32 1 5
-15 194 -8 223 7 25 14 57 13 62 -2 4 -11 142 -15 423 -10 129 2 227 -1 240
-9 6 -3 37 -3 70 1 33 4 65 4 70 -1 6 -4 26 -8 45 -7 19 0 62 -2 95 -6 84 -9
82 -9 160 -1 109 11 267 6 290 -9 11 -7 43 -15 70 -18 80 -9 105 -22 105 -58
0 -19 -7 -34 -20 -42 -26 -17 -25 -26 3 -30 18 -2 23 -11 28 -48 3 -25 2 -79
-2 -120 -5 -41 -5 -77 -1 -80 4 -3 7 -125 7 -272 l0 -267 -30 -7 c-16 -4 -70
-7 -119 -6 -80 1 -89 -1 -93 -19 -4 -15 -11 -19 -27 -15 -11 3 -32 6 -46 6
-20 0 -22 2 -10 10 13 8 12 10 -3 10 -27 0 -20 -62 7 -66 10 -1 23 -9 27 -16
7 -11 9 -10 9 1 0 11 3 11 15 1 17 -14 21 -35 5 -25 -13 8 -35 -14 -44 -43 -4
-12 -10 -22 -14 -23 -35 -4 -68 -11 -72 -16 -3 -3 7 -4 22 -1 21 4 29 1 34
-14 5 -18 6 -17 23 3 16 20 18 20 31 4 11 -13 11 -20 2 -36 -7 -11 -10 -24 -7
-29 8 -13 -8 -13 -22 1 -7 7 -12 1 -16 -21 -8 -36 -29 -46 -142 -66 -44 -8
-91 -18 -105 -23 -52 -20 -370 -41 -370 -25 0 8 28 71 51 115 17 33 17 37 3
43 -9 3 -19 4 -24 1 -4 -2 -101 -7 -216 -10 -114 -3 -210 -8 -213 -10 -9 -9 6
-15 65 -25 103 -18 104 -18 104 -45 0 -23 2 -24 44 -19 53 8 96 -1 96 -20 0
-7 -15 -17 -32 -21 -29 -6 -31 -8 -13 -15 16 -7 12 -9 -18 -9 -24 -1 -36 3
-35 11 2 7 -8 14 -21 16 -19 3 -22 0 -18 -13 6 -15 -11 -16 -194 -12 -127 3
-205 9 -212 16 -6 6 -21 11 -34 11 -13 0 -23 4 -23 9 0 4 -11 7 -25 6 -14 -2
-25 1 -25 6 0 5 -7 9 -16 9 -8 0 -12 5 -9 10 3 6 1 10 -6 10 -7 0 -9 3 -6 7 4
3 1 13 -6 21 -10 13 -9 14 2 7 9 -5 12 -4 7 3 -9 15 21 28 74 31 40 2 71 15
59 24 -12 11 -233 47 -240 40 -5 -5 -5 -37 0 -73 5 -36 9 -59 10 -52 0 6 8 12
17 12 9 0 23 8 30 17 18 26 28 9 15 -28 -6 -18 -11 -42 -11 -55 0 -26 -33 -49
-57 -40 -11 5 -14 14 -9 37 4 23 2 30 -7 26 -46 -17 -55 -16 -91 10 l-37 28 4
70 c2 39 2 63 0 53 -2 -9 -11 -19 -19 -22 -11 -4 -14 5 -15 42 -1 26 0 52 1
57 2 6 2 18 2 28 -1 15 4 18 26 13 19 -5 23 -4 12 3 -8 6 -12 13 -8 16 15 15
112 23 144 12 18 -6 20 -3 20 27 -1 26 -4 32 -13 24 -7 -5 -12 -13 -11 -16 2
-19 -4 -22 -17 -9 -8 9 -23 13 -34 10 -16 -4 -19 -1 -14 19 l5 23 -19 -22
c-22 -27 -89 -28 -87 -2 2 21 -40 22 -80 2 -21 -11 -31 -12 -36 -4 -3 7 -14 9
-23 5 -10 -3 -17 -1 -17 6 0 7 -8 9 -20 5 -11 -3 -20 -2 -20 4 0 6 -14 7 -34
4 -19 -3 -36 -1 -40 6 -5 7 -14 4 -28 -9 -17 -15 -24 -17 -30 -8 -5 10 -11 8
-22 -7 -15 -20 -15 -20 -16 0 -1 11 -4 14 -7 8 -2 -7 -14 -13 -24 -13 -12 0
-17 4 -14 11 4 6 -2 13 -13 16 -24 6 -31 30 -36 122 -2 38 -9 67 -17 72 -11 6
-10 11 2 26 12 14 15 41 13 133 -1 63 2 142 7 175 5 38 5 61 -1 65 -6 4 -8 25
-5 48 3 22 1 43 -3 46 -4 2 -7 40 -7 83 2 100 36 187 72 180 13 -2 24 2 27 9
6 17 18 18 33 3z m107 -1095 c15 -14 21 -38 18 -74 0 -8 -3 -38 -5 -67 -2 -29
-1 -50 3 -48 12 7 5 -70 -8 -83 -7 -8 -10 -18 -7 -23 4 -5 1 -9 -4 -9 -6 0
-14 -1 -18 -2 -14 -5 -9 106 6 118 11 9 10 13 -4 27 -9 9 -25 17 -35 17 -35 0
-34 38 2 133 12 31 29 34 52 11z m275 -439 l13 -36 33 21 c34 21 34 21 44 1
14 -25 14 -51 1 -51 -6 0 -15 -11 -20 -25 -14 -36 -80 -32 -80 5 0 18 -19 30
-49 30 -9 0 -25 6 -34 13 -14 11 -14 16 -2 45 12 27 19 32 48 32 29 0 35 -4
46 -35z m725 -1 c4 -9 15 -12 35 -8 18 4 48 -1 75 -11 26 -10 56 -15 70 -11
26 6 59 -2 52 -13 -4 -6 7 -9 52 -12 9 -1 43 1 74 3 37 3 59 1 63 -6 3 -8 7
-7 11 2 7 14 31 16 36 3 2 -5 34 -5 78 0 166 20 228 30 285 43 33 7 62 12 64
10 8 -7 -12 -24 -30 -24 -10 0 -19 -5 -19 -11 0 -5 -5 -7 -11 -4 -5 4 -18 0
-27 -8 -30 -25 -48 -29 -319 -73 -108 -18 -156 -14 -147 11 4 10 0 15 -16 15
-11 0 -18 5 -15 10 10 17 -92 12 -109 -5 -20 -20 -37 -19 -30 3 5 16 5 16 -9
0 -17 -21 -97 -25 -98 -5 0 10 -2 10 -6 0 -7 -18 -40 -16 -46 1 -4 9 -14 12
-26 9 -15 -4 -21 -1 -21 11 0 9 6 16 13 16 8 0 7 3 -3 10 -8 5 -26 6 -39 3
-20 -5 -23 -3 -18 11 4 10 7 23 7 30 0 17 67 17 74 0z m-188 -54 c14 0 34 -5
45 -11 16 -8 25 -7 38 5 15 13 20 14 36 2 10 -7 15 -18 11 -24 -5 -8 3 -12 24
-12 21 0 30 -4 27 -12 -2 -8 10 -18 27 -24 30 -11 28 -12 -37 -19 -80 -9 -227
2 -206 16 8 5 32 9 54 10 l40 1 -40 10 c-22 5 -53 7 -68 4 -27 -5 -28 -4 -25
27 2 24 7 31 21 29 9 -2 17 1 16 5 -3 18 4 27 8 11 3 -11 14 -18 29 -18z
m1299 -140 c-3 -5 -15 -10 -25 -10 -10 0 -21 -4 -25 -9 -3 -5 -34 -19 -70 -31
-55 -18 -65 -25 -65 -45 0 -15 -8 -26 -21 -30 -29 -10 -35 1 -14 25 18 19 17
20 -6 20 -13 -1 -44 -5 -69 -11 -131 -28 -199 -41 -235 -43 -22 -2 -69 -7
-105 -11 -36 -4 -103 -9 -150 -10 -47 -2 -110 -5 -140 -9 -166 -18 -519 -11
-623 13 -31 7 -55 7 -66 1 -13 -6 -22 -4 -32 8 -14 16 4 17 276 19 184 2 291
7 293 13 2 5 19 10 39 10 19 0 42 7 50 16 13 13 18 13 25 2 7 -10 11 -9 22 5
13 17 14 16 19 -3 7 -25 23 -26 30 -1 3 14 11 18 25 14 25 -6 38 -33 17 -33
-8 0 -15 -7 -15 -15 0 -16 28 -19 68 -9 21 6 21 7 5 20 -16 12 -16 13 10 14
16 0 54 7 84 16 57 16 122 12 135 -9 4 -8 11 -7 22 2 8 7 79 19 162 27 80 7
152 18 158 23 6 5 27 9 46 10 19 0 60 7 90 15 67 17 93 19 85 6z m-348 -153
c-4 -10 -45 -22 -129 -36 -68 -12 -141 -26 -163 -30 -36 -8 -103 -7 -112 3 -2
2 -1 10 2 18 5 14 42 21 231 45 23 2 68 10 100 17 61 13 81 8 71 -17z m244
-170 c-6 -6 -26 -16 -43 -22 -22 -7 -33 -16 -31 -29 1 -19 -70 -56 -108 -56
-11 0 -27 -4 -37 -10 -19 -11 -265 -55 -357 -64 -71 -7 -102 6 -71 29 11 8 31
16 45 16 30 2 28 1 191 24 69 9 152 20 186 25 50 6 124 32 124 44 0 1 -13 1
-30 -2 -23 -3 -30 0 -30 12 0 21 30 35 98 45 62 8 80 5 63 -12z m-174 -34 c7
-20 -28 -31 -177 -53 -170 -25 -361 -40 -374 -29 -6 5 -2 17 9 29 22 25 35 26
35 3 1 -17 2 -17 14 0 11 14 31 19 88 22 125 6 229 16 252 24 11 4 41 9 66 10
24 1 47 4 49 7 8 8 34 0 38 -13z m-611 -19 c-3 -9 4 -16 19 -20 30 -7 32 -29
5 -44 -51 -27 -463 -33 -594 -9 -28 5 -73 14 -100 19 -27 5 -50 11 -52 13 -2
2 40 4 93 4 230 0 459 7 478 14 11 4 38 11 59 14 27 5 35 9 26 15 -9 6 -5 9
16 12 39 5 56 -2 50 -18z m581 -277 c-3 -10 -31 -19 -74 -26 -37 -5 -115 -18
-173 -27 -97 -16 -194 -21 -230 -12 -23 5 -23 23 0 26 11 2 20 7 20 12 0 4 10
8 23 9 76 3 292 24 351 35 73 12 93 8 83 -17z m-520 -43 c15 -46 -274 -65
-607 -39 -19 1 -59 10 -89 18 -30 9 -58 14 -63 11 -4 -3 -8 -1 -8 3 0 5 82 9
183 9 214 1 430 12 459 23 24 9 120 -10 125 -25z m713 -183 c0 -14 -23 -28
-55 -34 -16 -3 -88 -19 -160 -35 -216 -49 -435 -72 -473 -48 -6 3 -13 2 -16
-3 -3 -5 -21 -9 -40 -8 -19 0 -46 -5 -60 -13 -17 -9 -29 -10 -38 -3 -8 6 -47
7 -108 1 -104 -9 -350 1 -402 18 -42 13 -71 16 -188 20 -174 6 -214 9 -230 19
-8 5 -27 8 -42 6 -14 -1 -29 3 -33 9 -4 6 -15 8 -24 5 -10 -3 -34 2 -55 10
-30 13 -35 18 -27 33 7 14 19 17 48 14 21 -2 43 -8 49 -13 5 -4 20 -6 32 -2
15 3 24 0 28 -11 4 -11 18 -16 43 -16 74 0 156 -13 179 -28 21 -14 70 -16 336
-17 238 -1 319 2 343 12 37 15 121 17 142 4 9 -6 21 -5 31 1 12 8 25 7 47 -4
26 -13 32 -13 52 0 15 10 56 17 124 19 56 2 116 8 132 13 17 5 77 14 135 20
114 11 187 24 197 34 9 9 33 7 33 -3z m38 -273 c-9 -26 -194 -70 -471 -113
-122 -18 -173 -22 -192 -15 -15 6 -30 8 -35 5 -4 -3 -19 -1 -32 4 -21 9 -21
10 -3 12 11 1 24 0 30 -1 5 -1 35 5 65 14 30 8 107 19 170 25 169 16 410 58
427 75 12 11 45 6 41 -6z m-811 -72 c49 -40 56 -56 25 -56 -10 0 -22 -4 -28
-10 -21 -21 -525 -14 -619 10 -27 6 -63 15 -79 19 -15 3 93 6 240 7 296 0 351
5 385 35 23 20 48 18 76 -5z"/>
<path d="M5882 7843 c-22 -4 -23 -6 -7 -23 12 -14 13 -20 4 -26 -7 -4 -17 0
-24 9 -15 21 -41 22 -49 1 -3 -8 -10 -13 -15 -10 -5 3 -14 -1 -21 -9 -10 -12
-9 -15 4 -15 19 0 22 -16 4 -23 -7 -2 -10 -8 -6 -12 12 -13 39 22 31 41 -6 15
-2 16 32 11 20 -3 46 -14 56 -22 16 -16 17 -16 12 4 -7 27 0 26 31 -3 31 -28
34 -46 6 -39 -16 4 -19 2 -14 -12 6 -14 3 -16 -14 -11 -17 6 -19 3 -15 -14 7
-26 19 -26 34 1 8 15 14 18 22 10 7 -7 14 -5 23 7 17 23 31 6 16 -19 -7 -11
-10 -24 -6 -30 3 -5 0 -16 -6 -24 -6 -8 -9 -19 -6 -24 9 -13 -15 -51 -31 -51
-7 0 -13 -4 -13 -10 0 -17 22 -11 40 10 9 10 33 21 54 23 37 4 59 -8 33 -19
-8 -3 -14 -17 -13 -34 1 -22 4 -26 14 -18 7 6 10 13 7 16 -3 3 0 11 6 18 8 10
15 9 37 -2 15 -8 33 -14 40 -14 6 0 12 -7 12 -15 0 -17 -17 -20 -22 -4 -2 6
-13 9 -23 7 -20 -5 -20 -5 0 -13 11 -5 27 -17 36 -27 20 -22 42 -23 59 -3 12
14 15 14 31 -1 23 -20 24 -37 5 -53 -11 -10 -16 -8 -21 8 -11 34 -65 20 -65
-16 0 -11 4 -11 20 -1 25 16 37 4 19 -18 -13 -16 -12 -16 8 -6 32 18 45 15 38
-8 -3 -11 -2 -20 3 -20 5 0 12 -9 15 -20 4 -15 10 -18 24 -13 10 3 21 11 24
16 9 12 39 2 39 -13 0 -7 -8 -9 -19 -5 -29 9 -36 -33 -8 -45 19 -7 19 -9 4 -9
-20 -1 -19 -22 1 -29 13 -4 42 55 42 83 0 9 -15 22 -34 30 -33 14 -51 39 -41
55 3 5 -1 25 -9 45 -15 34 -57 62 -77 49 -5 -3 -9 2 -9 10 0 9 -9 16 -20 16
-10 0 -24 8 -29 19 -7 13 -18 17 -36 14 -20 -4 -25 -1 -25 14 0 10 6 25 13 32
10 10 7 16 -13 31 -14 11 -30 20 -37 20 -14 0 -38 39 -26 42 4 0 15 1 23 2 8
1 16 11 18 24 3 21 2 22 -17 10 -16 -10 -23 -10 -33 0 -6 6 -20 12 -29 12 -10
0 -21 5 -24 11 -5 7 5 8 29 4 29 -6 36 -4 36 9 0 9 -7 16 -15 16 -9 0 -19 9
-23 21 -8 20 -8 20 -21 -4 -11 -21 -16 -23 -37 -13 -19 8 -23 16 -19 34 3 12
2 21 -2 21 -5 -1 -18 -4 -31 -6z"/>
<path d="M6499 6018 c-3 -52 -30 -88 -66 -88 -16 0 -23 -6 -23 -20 0 -24 38
-28 46 -5 4 8 10 15 16 15 6 0 7 -22 3 -55 -5 -38 -4 -55 4 -55 16 0 13 -27
-4 -34 -20 -7 -19 -24 2 -28 16 -3 27 -48 11 -48 -4 0 -8 -9 -8 -19 0 -11 -4
-23 -10 -26 -5 -3 -10 -19 -10 -36 0 -22 5 -29 20 -29 20 0 26 -11 13 -24 -4
-4 -15 -27 -24 -51 -16 -42 -16 -44 3 -48 11 -3 17 -10 13 -16 -3 -6 -11 -9
-16 -6 -5 4 -9 -1 -9 -9 0 -9 9 -16 20 -16 23 0 41 67 20 80 -17 10 -3 50 18
51 11 0 12 3 5 6 -19 7 -16 33 5 33 14 1 12 5 -10 25 -27 23 -38 43 -19 30 10
-6 41 49 41 72 0 7 -7 13 -15 13 -11 0 -13 8 -8 33 3 17 10 40 14 49 14 27 11
37 -11 31 -14 -4 -20 0 -20 12 0 12 6 16 20 12 11 -3 20 -1 20 4 0 5 -4 9 -9
9 -6 0 0 71 8 87 10 20 12 35 6 41 -4 4 -10 1 -12 -5 -8 -21 -26 -14 -20 7 3
11 1 20 -4 20 -5 0 -9 -6 -10 -12z"/>
<path d="M2778 7455 c-10 -13 -18 -30 -18 -39 0 -8 -4 -16 -8 -18 -13 -5 -64
-157 -58 -173 3 -8 0 -17 -6 -21 -7 -4 -8 -3 -4 4 4 7 3 12 -3 12 -6 0 -9 -13
-8 -30 2 -28 17 -44 17 -18 0 6 2 9 5 6 8 -8 -6 -39 -15 -33 -4 2 -12 -8 -19
-23 -11 -26 -11 -26 5 -7 15 19 16 17 10 -37 -3 -31 -9 -65 -12 -75 -5 -12 -4
-15 3 -8 6 6 23 46 38 90 15 44 30 89 35 100 14 34 22 95 11 95 -5 0 -11 -5
-13 -12 -2 -6 -10 -8 -16 -4 -9 5 -9 13 -2 27 6 10 7 19 3 19 -4 0 -1 5 8 10
10 6 22 32 29 60 11 46 30 77 30 50 0 -6 5 -8 10 -5 12 7 14 55 3 55 -5 0 -16
-11 -25 -25z"/>
<path d="M2965 7380 c-3 -5 -1 -10 4 -10 6 0 11 -11 11 -25 0 -16 -4 -23 -14
-19 -16 6 -46 -21 -46 -41 0 -16 -33 -37 -52 -33 -7 2 -13 -4 -13 -12 0 -10 8
-14 23 -13 20 3 21 0 12 -17 -6 -11 -8 -24 -6 -29 7 -10 -17 -21 -45 -21 -11
0 -19 -7 -19 -16 0 -13 7 -15 35 -10 22 4 35 3 35 -4 0 -5 -10 -10 -22 -10
-18 0 -20 -2 -9 -9 22 -14 22 -41 0 -41 -10 0 -19 -4 -19 -9 0 -16 36 -22 64
-11 28 10 27 30 0 30 -8 0 -12 5 -9 11 4 6 14 8 22 5 9 -4 18 4 25 25 9 27 14
29 39 24 22 -5 29 -3 29 9 0 19 -39 18 -62 -2 -14 -12 -21 -12 -32 -3 -12 10
-13 16 -3 32 6 10 20 19 29 19 10 0 18 4 18 9 0 4 22 6 49 3 30 -2 51 0 55 7
5 8 -15 11 -68 11 -44 0 -76 4 -76 10 0 6 9 10 19 10 24 0 38 20 21 30 -9 5
-9 9 -1 14 6 4 11 2 11 -4 0 -6 10 -8 23 -5 15 4 28 1 36 -9 19 -23 33 -20 29
7 -2 17 -10 22 -33 22 -23 0 -30 5 -30 20 -1 11 4 23 9 27 6 4 5 13 -3 22 -15
18 -27 20 -36 6z"/>
<path d="M2812 6241 c1 -16 7 -32 14 -35 15 -6 7 -46 -9 -43 -10 2 -30 -64
-21 -72 2 -2 10 2 19 9 11 9 12 16 5 25 -8 9 -8 15 0 20 16 10 22 -19 13 -56
-7 -25 -16 -35 -40 -41 -30 -8 -61 -34 -51 -43 3 -3 19 2 36 11 51 25 64 4 40
-62 -10 -28 -9 -36 5 -52 11 -11 14 -26 10 -42 -6 -23 -5 -24 11 -11 9 8 15
20 12 27 -3 7 6 22 20 33 25 20 25 20 4 31 -15 8 -19 17 -14 36 5 18 3 23 -7
19 -21 -8 -22 61 -2 96 10 16 23 29 31 29 10 0 8 8 -7 28 -11 16 -23 40 -26
55 -4 15 -11 27 -17 27 -5 0 -7 4 -4 9 3 5 -1 14 -8 21 -12 9 -15 6 -14 -19z"/>
</g>
</svg>
